# xmcd CD database file
#
# Track frame offsets:
#	150
#	15671
#	34672
#	51761
#	74021
#	90356
#	105202
#	112991
#	142391
#	160022
#	173245
#	192583
#	209355
#	220620
#
# Disc length: 3229 seconds
#
# Revision: 0
# Processed by: cddbd v1.5.1PL2 Copyright (c) Steve Scherf et al.
# Submitted via: CDex 1.51
#
DISCID=c00c9b0e
DTITLE=Steven Jaymes - Hemingway Cats
DYEAR=2004
DGENRE=Jazz
TTITLE0=Hemingway Cats
TTITLE1=Cry
TTITLE2=Expectation
TTITLE3=Manhattan
TTITLE4=Seven
TTITLE5=Higher Pt 1
TTITLE6=Higher Pt 21
TTITLE7=Emily
TTITLE8=Bird On A Wire
TTITLE9=Lead You home
TTITLE10=Believe
TTITLE11=Never More Alive
TTITLE12=Movin' On
TTITLE13=Candy
EXTD=YEAR: 2004
EXTT0=
EXTT1=
EXTT2=
EXTT3=
EXTT4=
EXTT5=
EXTT6=
EXTT7=
EXTT8=
EXTT9=
EXTT10=
EXTT11=
EXTT12=
EXTT13=
PLAYORDER=
